<svg width="35" height="10" viewBox="0 0 35 10" fill="none" xmlns="http://www.w3.org/2000/svg">
<path d="M6.41016 8.08008V9H1.89258V8.08008H6.41016ZM2.12109 0.46875V9H0.990234V0.46875H2.12109ZM5.8125 4.13672V5.05664H1.89258V4.13672H5.8125ZM6.35156 0.46875V1.39453H1.89258V0.46875H6.35156ZM10.3823 4.92773V5.81836H7.52297V4.92773H10.3823ZM13.001 3.91992V9H11.9112V2.66016H12.9424L13.001 3.91992ZM12.7784 5.58984L12.2745 5.57227C12.2784 5.13867 12.335 4.73828 12.4444 4.37109C12.5538 4 12.7159 3.67773 12.9307 3.4043C13.1455 3.13086 13.4131 2.91992 13.7334 2.77148C14.0538 2.61914 14.4248 2.54297 14.8467 2.54297C15.1436 2.54297 15.417 2.58594 15.667 2.67188C15.917 2.75391 16.1338 2.88477 16.3174 3.06445C16.501 3.24414 16.6436 3.47461 16.7452 3.75586C16.8467 4.03711 16.8975 4.37695 16.8975 4.77539V9H15.8135V4.82812C15.8135 4.49609 15.7569 4.23047 15.6436 4.03125C15.5342 3.83203 15.378 3.6875 15.1748 3.59766C14.9717 3.50391 14.7334 3.45703 14.46 3.45703C14.1397 3.45703 13.8721 3.51367 13.6573 3.62695C13.4424 3.74023 13.2705 3.89648 13.1416 4.0957C13.0127 4.29492 12.919 4.52344 12.8604 4.78125C12.8057 5.03516 12.7784 5.30469 12.7784 5.58984ZM16.8858 4.99219L16.1592 5.21484C16.1631 4.86719 16.2198 4.5332 16.3291 4.21289C16.4424 3.89258 16.6045 3.60742 16.8155 3.35742C17.0303 3.10742 17.294 2.91016 17.6065 2.76562C17.919 2.61719 18.2764 2.54297 18.6788 2.54297C19.0186 2.54297 19.3194 2.58789 19.5811 2.67773C19.8467 2.76758 20.0694 2.90625 20.2491 3.09375C20.4327 3.27734 20.5713 3.51367 20.6651 3.80273C20.7588 4.0918 20.8057 4.43555 20.8057 4.83398V9H19.7159V4.82227C19.7159 4.4668 19.6592 4.19141 19.5459 3.99609C19.4366 3.79688 19.2803 3.6582 19.0772 3.58008C18.878 3.49805 18.6397 3.45703 18.3623 3.45703C18.1241 3.45703 17.9131 3.49805 17.7295 3.58008C17.5459 3.66211 17.3916 3.77539 17.2666 3.91992C17.1416 4.06055 17.0459 4.22266 16.9795 4.40625C16.917 4.58984 16.8858 4.78516 16.8858 4.99219ZM26.6646 7.91602V4.65234C26.6646 4.40234 26.6138 4.18555 26.5123 4.00195C26.4146 3.81445 26.2662 3.66992 26.067 3.56836C25.8677 3.4668 25.6216 3.41602 25.3287 3.41602C25.0552 3.41602 24.815 3.46289 24.608 3.55664C24.4048 3.65039 24.2447 3.77344 24.1275 3.92578C24.0142 4.07812 23.9576 4.24219 23.9576 4.41797H22.8736C22.8736 4.19141 22.9322 3.9668 23.0494 3.74414C23.1666 3.52148 23.3345 3.32031 23.5533 3.14062C23.7759 2.95703 24.0416 2.8125 24.3502 2.70703C24.6627 2.59766 25.0103 2.54297 25.3931 2.54297C25.8541 2.54297 26.2603 2.62109 26.6119 2.77734C26.9673 2.93359 27.2447 3.16992 27.4439 3.48633C27.647 3.79883 27.7486 4.19141 27.7486 4.66406V7.61719C27.7486 7.82812 27.7662 8.05273 27.8013 8.29102C27.8404 8.5293 27.897 8.73438 27.9713 8.90625V9H26.8404C26.7857 8.875 26.7427 8.70898 26.7115 8.50195C26.6802 8.29102 26.6646 8.0957 26.6646 7.91602ZM26.8521 5.15625L26.8638 5.91797H25.7681C25.4595 5.91797 25.1841 5.94336 24.942 5.99414C24.6998 6.04102 24.4966 6.11328 24.3326 6.21094C24.1685 6.30859 24.0435 6.43164 23.9576 6.58008C23.8716 6.72461 23.8287 6.89453 23.8287 7.08984C23.8287 7.28906 23.8736 7.4707 23.9634 7.63477C24.0533 7.79883 24.188 7.92969 24.3677 8.02734C24.5513 8.12109 24.7759 8.16797 25.0416 8.16797C25.3736 8.16797 25.6666 8.09766 25.9205 7.95703C26.1744 7.81641 26.3755 7.64453 26.524 7.44141C26.6763 7.23828 26.7584 7.04102 26.7701 6.84961L27.233 7.37109C27.2056 7.53516 27.1314 7.7168 27.0103 7.91602C26.8892 8.11523 26.7271 8.30664 26.524 8.49023C26.3248 8.66992 26.0865 8.82031 25.8091 8.94141C25.5357 9.05859 25.2271 9.11719 24.8834 9.11719C24.4537 9.11719 24.0767 9.0332 23.7525 8.86523C23.4322 8.69727 23.1822 8.47266 23.0025 8.19141C22.8267 7.90625 22.7388 7.58789 22.7388 7.23633C22.7388 6.89648 22.8052 6.59766 22.938 6.33984C23.0709 6.07812 23.2623 5.86133 23.5123 5.68945C23.7623 5.51367 24.063 5.38086 24.4146 5.29102C24.7662 5.20117 25.1588 5.15625 25.5923 5.15625H26.8521ZM31.1114 2.66016V9H30.0216V2.66016H31.1114ZM29.9395 0.978516C29.9395 0.802734 29.9923 0.654297 30.0977 0.533203C30.2071 0.412109 30.3673 0.351562 30.5782 0.351562C30.7852 0.351562 30.9434 0.412109 31.0528 0.533203C31.1661 0.654297 31.2227 0.802734 31.2227 0.978516C31.2227 1.14648 31.1661 1.29102 31.0528 1.41211C30.9434 1.5293 30.7852 1.58789 30.5782 1.58789C30.3673 1.58789 30.2071 1.5293 30.0977 1.41211C29.9923 1.29102 29.9395 1.14648 29.9395 0.978516ZM34.5094 0V9H33.4195V0H34.5094Z" fill="white"/>
</svg>
